HIERARCHY
ROOT Hips
{
	OFFSET 0.00000 0.00000 0.00000
	CHANNELS 6 Xposition Yposition Zposition Zrotation Yrotation Xrotation 
	JOINT LHipJoint
	{
		OFFSET 0 0 0
		CHANNELS 3 Zrotation Yrotation Xrotation
		JOINT LeftUpLeg
		{
			OFFSET 1.41261 -1.82971 0.84908
			CHANNELS 3 Zrotation Yrotation Xrotation
			JOINT LeftLeg
			{
				OFFSET 2.52554 -6.93888 0.00000
				CHANNELS 3 Zrotation Yrotation Xrotation
				JOINT LeftFoot
				{
					OFFSET 2.56654 -7.05152 0.00000
					CHANNELS 3 Zrotation Yrotation Xrotation
					JOINT LeftToeBase
					{
						OFFSET 0.21698 -0.59616 1.85369
						CHANNELS 3 Zrotation Yrotation Xrotation
						End Site
						{
							OFFSET 0.00000 -0.00000 0.97832
						}
					}
				}
			}
		}
	}
	JOINT RHipJoint
	{
		OFFSET 0 0 0
		CHANNELS 3 Zrotation Yrotation Xrotation
		JOINT RightUpLeg
		{
			OFFSET -1.12808 -1.82971 0.84907
			CHANNELS 3 Zrotation Yrotation Xrotation
			JOINT RightLeg
			{
				OFFSET -2.53425 -6.96280 0.00000
				CHANNELS 3 Zrotation Yrotation Xrotation
				JOINT RightFoot
				{
					OFFSET -2.58413 -7.09983 0.00000
					CHANNELS 3 Zrotation Yrotation Xrotation
					JOINT RightToeBase
					{
						OFFSET -0.26437 -0.72636 1.92241
						CHANNELS 3 Zrotation Yrotation Xrotation
						End Site
						{
							OFFSET -0.00000 -0.00000 1.02667
						}
					}
				}
			}
		}
	}
	JOINT LowerBack
	{
		OFFSET 0 0 0
		CHANNELS 3 Zrotation Yrotation Xrotation
		JOINT Spine
		{
			OFFSET -0.02096 2.02288 -0.14752
			CHANNELS 3 Zrotation Yrotation Xrotation
			JOINT Spine1
			{
				OFFSET 0.03477 2.03136 -0.02358
				CHANNELS 3 Zrotation Yrotation Xrotation
				JOINT Neck
				{
					OFFSET 0 0 0
					CHANNELS 3 Zrotation Yrotation Xrotation
					JOINT Neck1
					{
						OFFSET 0.00174 1.74359 0.19336
						CHANNELS 3 Zrotation Yrotation Xrotation
						JOINT Head
						{
							OFFSET -0.03054 1.76140 -0.17751
							CHANNELS 3 Zrotation Yrotation Xrotation
							End Site
							{
								OFFSET -0.00863 1.77239 -0.08120
							}
						}
					}
				}
				JOINT LeftShoulder
				{
					OFFSET 0 0 0
					CHANNELS 3 Zrotation Yrotation Xrotation
					JOINT LeftArm
					{
						OFFSET 3.68685 1.32687 -0.67367
						CHANNELS 3 Zrotation Yrotation Xrotation
						JOINT LeftForeArm
						{
							OFFSET 4.76468 -0.00000 -0.00000
							CHANNELS 3 Zrotation Yrotation Xrotation
							JOINT LeftHand
							{
								OFFSET 3.52712 -0.00000 -0.00000
								CHANNELS 3 Zrotation Yrotation Xrotation
								JOINT LeftFingerBase
								{
									OFFSET 0 0 0
									CHANNELS 3 Zrotation Yrotation Xrotation
									JOINT LeftHandIndex1
									{
										OFFSET 0.85956 -0.00000 -0.00000
										CHANNELS 3 Zrotation Yrotation Xrotation
										End Site
										{
											OFFSET 0.69300 -0.00000 -0.00000
										}
									}
								}
								JOINT LThumb
								{
									OFFSET 0 0 0
									CHANNELS 3 Zrotation Yrotation Xrotation
									End Site
									{
										OFFSET 0.70358 -0.00000 0.70358
									}
								}
							}
						}
					}
				}
				JOINT RightShoulder
				{
					OFFSET 0 0 0
					CHANNELS 3 Zrotation Yrotation Xrotation
					JOINT RightArm
					{
						OFFSET -3.31304 1.28268 -0.97357
						CHANNELS 3 Zrotation Yrotation Xrotation
						JOINT RightForeArm
						{
							OFFSET -4.90577 -0.00000 -0.00000
							CHANNELS 3 Zrotation Yrotation Xrotation
							JOINT RightHand
							{
								OFFSET -3.42692 -0.00000 0.00000
								CHANNELS 3 Zrotation Yrotation Xrotation
								JOINT RightFingerBase
								{
									OFFSET 0 0 0
									CHANNELS 3 Zrotation Yrotation Xrotation
									JOINT RightHandIndex1
									{
										OFFSET -0.74096 -0.00000 -0.00000
										CHANNELS 3 Zrotation Yrotation Xrotation
										End Site
										{
											OFFSET -0.59738 -0.00000 -0.00000
										}
									}
								}
								JOINT RThumb
								{
									OFFSET 0 0 0
									CHANNELS 3 Zrotation Yrotation Xrotation
									End Site
									{
										OFFSET -0.60650 -0.00000 0.60650
									}
								}
							}
						}
					}
				}
			}
		}
	}
}
MOTION
Frames: 15
Frame Time: .0083333
-17.1437 17.749 -30.0033 0 0 0 0 0 0 -21 0 0 0 0 0 0 0 0 0 0 0 0 0 0 21 0 0 0 0 0 0 0 0 0 0 0 0 0 0 0 0 0 0 0 0 0 0 -16 0 0 21 0 0 11 0 0 0 -8 0 0 0 0 0 0 0 0 0 0 0 0 0 0 0 0 0 0 0 0 8 0 0 0 0 0 0 0 0 0 0 0 0 0 0 0 0 0
-17.1437 17.7490 -30.0033 -3.8005 31.6431 6.6069 0.0000 0.0000 0.0000 -19.7217 -3.5416 -12.9577 2.5560 9.9390 28.7796 1.7552 -5.5891 -23.8800 1.5066 -7.7524 -21.9645 0.0000 0.0000 0.0000 25.8612 1.3164 -15.0099 -2.8245 -10.4054 30.2997 -2.5010 5.8124 -28.7048 -0.0193 -0.8966 2.4643 -0.7600 -0.2978 7.8904 2.6116 -0.3454 0.5554 3.1761 -0.1329 -3.8305 -3.7035 0.7057 -13.5643 2.3755 1.3496 17.9382 1.5408 0.6366 7.7254 -0.0000 0.0000 0.0000 -97.8977 7.3859 10.9998 25.5743 -36.7852 -8.6314 -0.0000 0.0000 -1.6913 5.0299 -9.3482 -0.8191 -7.1250 0.0000 -0.0000 -15.5953 20.7314 9.4142 -0.0000 0.0000 0.0000 88.2687 1.1905 17.6199 -14.1739 22.9828 -2.8957 0.0000 -0.0000 -5.7301 -8.7791 -39.4722 5.6070 7.1250 -0.0000 -0.0000 35.4726 -66.5076 -19.4095
-17.1113 17.7478 -30.0049 -4.0513 31.6404 6.3928 0.0000 0.0000 0.0000 -19.5676 -3.6796 -12.8355 2.6039 10.0244 29.0558 1.8136 -5.7635 -24.2723 1.2417 -7.0658 -19.9106 0.0000 0.0000 0.0000 26.0115 1.1858 -14.8967 -2.8271 -10.4097 30.3140 -2.4921 5.5476 -28.6850 -0.0102 -0.6532 1.7950 -0.4639 -0.2895 8.0681 2.6567 -0.3049 0.6403 3.0524 -0.1174 -3.8457 -3.5046 0.7149 -13.5958 2.3275 1.3288 17.9042 1.4898 0.6357 7.7221 -0.0000 0.0000 0.0000 -97.7750 7.4083 10.9622 25.8117 -37.0222 -8.7740 -0.0000 0.0000 -2.0840 5.5996 -9.9725 -0.9727 -7.1250 0.0000 -0.0000 -15.1435 20.1128 9.3405 -0.0000 0.0000 0.0000 90.9525 0.4138 13.5477 -14.5602 23.5298 -3.0482 0.0000 -0.0000 -0.4563 -7.9052 -39.1444 5.0095 7.1250 -0.0000 -0.0000 35.8953 -65.9945 -19.2528
-17.0785 17.7408 -30.0043 -3.9559 31.6414 6.4088 0.0000 0.0000 0.0000 -19.7660 -3.7275 -12.7203 2.6130 10.0405 29.1080 1.8395 -5.7850 -24.4503 1.1055 -6.6805 -18.7723 0.0000 0.0000 0.0000 25.7966 1.2240 -15.0290 -2.9110 -10.5495 30.7753 -2.5103 5.5111 -28.7995 -0.0155 -0.8051 2.2128 -0.4911 -0.3125 8.1791 2.6305 -0.3389 0.7017 3.0451 -0.1345 -3.8420 -3.3716 0.7665 -13.5554 2.3966 1.3547 17.8014 1.4915 0.6641 7.6803 -0.0000 0.0000 0.0000 -97.6736 7.4708 10.8657 25.9135 -37.1232 -8.8354 -0.0000 0.0000 -2.2770 6.0149 -10.8424 -1.1355 -7.1250 0.0000 -0.0000 -14.7862 19.2559 9.3989 -0.0000 0.0000 0.0000 90.9036 0.3714 14.2519 -14.5652 23.5369 -3.0502 0.0000 -0.0000 -0.2359 -7.6551 -39.2311 4.8588 7.1250 -0.0000 -0.0000 36.2779 -65.9897 -19.4779
-17.0476 17.7269 -30.0016 -3.6194 31.6429 6.5224 0.0000 0.0000 0.0000 -20.1876 -3.5746 -12.6849 2.6251 10.0619 29.1774 1.8647 -6.0910 -24.5948 1.1447 -6.7939 -19.1063 0.0000 0.0000 0.0000 25.3594 1.4823 -15.1043 -3.0048 -10.7028 31.2839 -2.5051 5.3759 -28.7868 -0.0445 -1.3617 3.7445 -0.7991 -0.3396 8.2999 2.5985 -0.4048 0.7669 3.1945 -0.1631 -3.8362 -3.2975 0.7511 -13.4480 2.3175 1.3297 17.7633 1.4492 0.6495 7.6507 0.0000 -0.0000 0.0000 -97.6934 7.5173 10.7236 25.9474 -37.1567 -8.8558 -0.0000 0.0000 -2.4512 6.6474 -11.4960 -1.3306 -7.1250 0.0000 -0.0000 -14.3036 18.5973 9.2885 0.0000 -0.0000 0.0000 90.9660 0.4936 14.3663 -14.5023 23.4482 -3.0251 0.0000 0.0000 0.1099 -7.7339 -39.2141 4.9074 7.1250 -0.0000 -0.0000 36.1723 -65.9993 -19.4224
-17.0159 17.7092 -29.9926 -3.5414 31.6571 6.5387 0.0000 0.0000 0.0000 -20.3399 -3.4642 -12.6153 2.6265 10.0643 29.1853 1.8900 -6.3818 -24.7434 1.1547 -6.8227 -19.1910 0.0000 0.0000 0.0000 25.1769 1.7079 -15.3361 -3.1418 -10.9212 32.0146 -2.5084 5.1355 -28.8404 -0.0660 -1.6578 4.5608 -0.9146 -0.3803 8.3187 2.6292 -0.4690 0.8349 3.2987 -0.1941 -3.7709 -3.2143 0.7229 -13.3626 2.1119 1.3111 17.7679 1.3651 0.6263 7.6402 -0.0000 0.0000 0.0000 -97.7609 7.4820 10.4174 25.8768 -37.0868 -8.8133 -0.0000 0.0000 -2.4926 7.2060 -11.8845 -1.4915 -7.1250 0.0000 -0.0000 -13.8949 18.1957 9.1339 -0.0000 0.0000 0.0000 91.0413 0.9530 12.6549 -14.6660 23.6787 -3.0905 0.0000 -0.0000 -2.4342 -5.3419 -39.5045 3.4041 7.1250 -0.0000 -0.0000 39.0190 -65.5326 -20.7409
-16.9801 17.6889 -29.9808 -3.4828 31.6962 6.6511 0.0000 0.0000 0.0000 -20.4744 -3.3497 -12.6444 2.6228 10.0579 29.1645 1.9151 -6.3659 -24.9149 1.2801 -7.1699 -20.2198 0.0000 0.0000 0.0000 24.9899 1.8368 -15.8248 -3.3210 -11.1974 32.9485 -2.5012 4.9408 -28.8261 -0.0739 -1.7533 4.8243 -0.9268 -0.4186 8.2244 2.6212 -0.5222 0.8574 3.3014 -0.2216 -3.6914 -3.1180 0.6907 -13.2846 1.9516 1.2757 17.7921 1.2924 0.6004 7.6375 0.0000 -0.0000 0.0000 -97.7546 7.3761 10.0653 25.6804 -36.8914 -8.6951 -0.0000 0.0000 -2.2969 7.3226 -12.1117 -1.5445 -7.1250 0.0000 -0.0000 -13.8012 17.9687 9.1399 0.0000 -0.0000 0.0000 91.1611 0.9954 12.8867 -14.6603 23.6708 -3.0883 0.0000 -0.0000 -2.2745 -5.5452 -39.2139 3.5123 7.1250 -0.0000 -0.0000 38.3930 -65.3695 -20.2218
-16.9411 17.6733 -29.9689 -3.2754 31.7348 6.8271 0.0000 0.0000 0.0000 -20.7629 -3.1398 -12.6773 2.6156 10.0452 29.1231 1.9490 -6.1737 -25.1603 1.6833 -8.1728 -23.2401 0.0000 0.0000 0.0000 24.6498 1.9999 -16.3672 -3.5463 -11.5309 34.0920 -2.4941 4.8468 -28.7976 -0.0849 -1.8797 5.1734 -1.0214 -0.4465 8.1828 2.5692 -0.5706 0.8687 3.3053 -0.2453 -3.6528 -3.0053 0.6577 -13.2291 1.7494 1.2452 17.8701 1.2046 0.5737 7.6567 -0.0000 0.0000 0.0000 -97.7021 7.3180 10.0479 25.4851 -36.6957 -8.5781 -0.0000 0.0000 -2.6300 7.3352 -12.0991 -1.5456 -7.1250 0.0000 -0.0000 -13.7934 17.9804 9.1307 -0.0000 0.0000 0.0000 91.2776 0.9907 12.7089 -14.7240 23.7602 -3.1139 0.0000 -0.0000 -2.4081 -5.0757 -38.9908 3.1987 7.1250 -0.0000 -0.0000 38.5444 -65.0655 -20.0472
-16.9005 17.6562 -29.9544 -3.1450 31.7233 6.8526 0.0000 0.0000 0.0000 -20.9918 -2.8431 -12.5765 2.6029 10.0227 29.0503 1.9413 -6.8531 -25.0557 1.2650 -7.1293 -20.0990 0.0000 0.0000 0.0000 24.3704 2.0469 -16.9300 -3.8299 -11.9306 35.4869 -2.5153 4.8208 -28.9295 -0.0758 -1.7762 4.8876 -1.0790 -0.4997 8.2543 2.5609 -0.6472 0.9140 3.3384 -0.2831 -3.6402 -2.8817 0.7122 -13.0996 1.4556 1.3475 17.8019 1.0963 0.6030 7.6123 -0.0000 0.0000 0.0000 -97.7625 7.2583 9.8521 25.2511 -36.4595 -8.4387 -0.0000 0.0000 -2.4984 7.2403 -12.0888 -1.5241 -7.1250 0.0000 -0.0000 -13.8590 17.9946 9.1724 -0.0000 0.0000 0.0000 91.3411 0.9741 12.5809 -14.7778 23.8357 -3.1356 0.0000 -0.0000 -2.4639 -4.8586 -38.9758 3.0605 7.1250 -0.0000 -0.0000 38.7400 -64.9928 -20.0994
-16.8587 17.6351 -29.9379 -2.9468 31.6297 6.8833 0.0000 0.0000 0.0000 -21.2970 -2.5831 -12.3622 2.5822 9.9858 28.9309 1.9596 -7.1716 -25.1585 1.1316 -6.7564 -18.9957 0.0000 0.0000 0.0000 23.9760 2.0768 -17.6450 -4.1782 -12.3939 37.1400 -2.5002 4.7350 -28.8522 -0.0531 -1.4865 4.0885 -1.1883 -0.5225 8.3655 2.5171 -0.6897 0.9764 3.3604 -0.3036 -3.6339 -2.6722 0.8001 -13.0341 1.2063 1.4710 17.8018 0.9918 0.6521 7.6017 -0.0000 0.0000 0.0000 -97.8392 7.1947 9.7180 25.0331 -36.2378 -8.3095 -0.0000 0.0000 -2.2577 7.1883 -11.7793 -1.4749 -7.1250 0.0000 -0.0000 -13.9136 18.2993 9.1140 -0.0000 0.0000 0.0000 91.3580 1.0044 12.7912 -14.7187 23.7528 -3.1118 0.0000 -0.0000 -1.8272 -5.2143 -38.9285 3.2819 7.1250 -0.0000 -0.0000 38.3177 -65.0570 -19.9056
-16.8147 17.6188 -29.9199 -2.7884 31.5164 6.9459 0.0000 0.0000 0.0000 -21.5502 -2.3979 -12.1187 2.5561 9.9391 28.7799 1.9771 -7.4018 -25.2624 1.0890 -6.6320 -18.6297 0.0000 0.0000 0.0000 23.5701 2.1708 -18.5648 -4.5927 -12.9099 39.0322 -2.4192 4.7359 -28.3586 -0.0373 -1.2469 3.4285 -1.2637 -0.5236 8.4544 2.4557 -0.7012 1.0207 3.3413 -0.3090 -3.6366 -2.4581 0.8258 -12.9564 1.1128 1.4765 17.7527 0.9253 0.6605 7.5740 0.0000 -0.0000 0.0000 -97.8309 7.1404 9.6391 24.8049 -36.0039 -8.1750 -0.0000 0.0000 -1.8860 6.7698 -11.4985 -1.3556 -7.1250 0.0000 -0.0000 -14.2193 18.5901 9.2325 0.0000 -0.0000 0.0000 91.3696 1.0781 12.6513 -14.6831 23.7029 -3.0974 0.0000 -0.0000 -1.5634 -5.1054 -38.7695 3.2021 7.1250 -0.0000 -0.0000 38.2030 -64.9041 -19.7052
-16.7678 17.6110 -29.8961 -2.6028 31.3971 7.0048 0.0000 0.0000 0.0000 -21.8154 -2.1287 -11.8387 2.5235 9.8805 28.5906 1.9725 -7.8160 -25.2152 0.9715 -6.2750 -17.5845 0.0000 0.0000 0.0000 23.0933 2.3210 -19.5862 -5.0789 -13.4721 41.1625 -2.2951 4.8710 -27.5676 -0.0385 -1.2666 3.4826 -1.3825 -0.5254 8.5874 2.3943 -0.7177 1.0545 3.3483 -0.3157 -3.6739 -2.2833 0.7820 -12.9179 1.0345 1.3937 17.7492 0.8619 0.6253 7.5695 0.0000 0.0000 0.0000 -97.8591 7.1089 9.4017 24.5560 -35.7467 -8.0291 -0.0000 0.0000 -1.3036 6.1488 -11.5725 -1.2380 -7.1250 0.0000 -0.0000 -14.6409 18.5416 9.5413 0.0000 0.0000 0.0000 91.3536 1.0987 12.5380 -14.6354 23.6357 -3.0783 0.0000 -0.0000 -1.4687 -5.1824 -38.5102 3.2322 7.1250 -0.0000 -0.0000 37.7665 -64.7257 -19.2959
-16.7201 17.6052 -29.8681 -2.2217 31.2719 7.0883 0.0000 0.0000 0.0000 -22.2702 -1.8453 -11.4427 2.4818 9.8046 28.3464 1.9610 -8.1830 -25.1292 0.8588 -5.9098 -16.5228 0.0000 0.0000 0.0000 22.3974 2.5617 -20.6164 -5.6379 -14.0680 43.5104 -2.0507 5.7110 -25.8843 -0.1223 -2.2545 6.2095 -1.6672 -0.5060 8.8097 2.3031 -0.7241 1.1165 3.4184 -0.3152 -3.7306 -2.1892 0.7457 -12.8426 0.9456 1.3391 17.6804 0.8106 0.5976 7.5359 -0.0000 0.0000 0.0000 -98.0089 7.0678 9.1407 24.3557 -35.5381 -7.9123 -0.0000 0.0000 -0.6853 5.5754 -11.6152 -1.1260 -7.1250 0.0000 -0.0000 -15.0307 18.5207 9.8210 -0.0000 0.0000 0.0000 91.3526 1.1200 12.2732 -14.5649 23.5364 -3.0501 0.0000 -0.0000 -1.0288 -5.3206 -38.3467 3.3068 7.1250 -0.0000 -0.0000 37.4041 -64.6374 -19.0103
-16.6739 17.5966 -29.8363 -1.8502 31.2016 7.2139 0.0000 0.0000 0.0000 -22.6844 -1.5060 -11.0852 2.4261 9.7022 28.0178 1.9577 -8.6845 -25.1016 0.7310 -5.4624 -15.2323 0.0000 0.0000 0.0000 21.6939 2.8303 -21.7921 -6.2650 -14.6803 46.0361 -1.9013 6.1361 -24.8412 -0.1064 -2.1031 5.7906 -1.9793 -0.5249 8.9569 2.2330 -0.7837 1.1913 3.5308 -0.3417 -3.7272 -2.0542 0.7013 -12.7457 0.8041 1.2757 17.6852 0.7350 0.5631 7.5234 -0.0000 0.0000 0.0000 -98.1863 7.0636 9.0053 24.2512 -35.4288 -7.8517 -0.0000 0.0000 -0.3274 5.3238 -11.4764 -1.0622 -7.1250 0.0000 -0.0000 -15.2133 18.6639 9.8990 -0.0000 0.0000 0.0000 91.3660 1.0544 12.1734 -14.5534 23.5203 -3.0455 0.0000 -0.0000 -0.4463 -5.6213 -38.3652 3.4959 7.1250 -0.0000 -0.0000 37.1268 -64.7355 -18.9339
-16.6273 17.5866 -29.7980 -1.3750 31.1658 7.4771 0.0000 0.0000 0.0000 -23.1683 -1.1449 -10.7571 2.3555 9.5703 27.5962 1.9619 -9.3153 -25.1339 0.5957 -4.9409 -13.7401 0.0000 0.0000 0.0000 20.8615 3.1023 -23.1759 -6.9486 -15.2885 48.6797 -1.8044 6.5092 -24.1455 -0.0788 -1.8106 4.9824 -2.4374 -0.5799 9.0026 2.1503 -0.9057 1.2551 3.7185 -0.3984 -3.6711 -1.8737 0.7639 -12.6866 0.5860 1.3643 17.6304 0.6419 0.5971 7.4967 -0.0000 -0.0000 0.0000 -98.3260 7.1113 9.0412 24.1973 -35.3722 -7.8205 -0.0000 0.0000 -0.3288 5.4293 -11.3383 -1.0705 -7.1250 0.0000 -0.0000 -15.1516 18.7941 9.8102 -0.0000 -0.0000 0.0000 91.2437 1.0925 11.6854 -14.6334 23.6330 -3.0775 0.0000 -0.0000 -1.4562 -5.1245 -38.4139 3.1893 7.1250 -0.0000 -0.0000 37.6927 -64.6351 -19.1751
